<?xml version="1.0" encoding="UTF-8"?>
<!-- Generated by Pixelmator Pro 3.3.5 -->
<svg width="330" height="330" viewBox="0 0 330 330" xmlns="http://www.w3.org/2000/svg">
    <path id="Rectangle" fill="#000000" fill-rule="evenodd" stroke="none" d="M 69 304 C 69 312.284271 75.715729 319 84 319 L 122 319 C 130.284271 319 137 312.284271 137 304 L 137 25 C 137 16.715729 130.284271 10 122 10 L 84 10 C 75.715729 10 69 16.715729 69 25 Z"/>
    <path id="Rectangle-copy" fill="#000000" fill-rule="evenodd" stroke="none" d="M 192 304 C 192 313.388855 199.61116 321 209 321 L 243 321 C 252.38884 321 260 313.388855 260 304 L 260 29 C 260 19.611145 252.38884 12 243 12 L 209 12 C 199.61116 12 192 19.611145 192 29 Z"/>
</svg>
